<svg xmlns="http://www.w3.org/2000/svg" xmlns:xlink="http://www.w3.org/1999/xlink" width="500" zoomAndPan="magnify" viewBox="0 0 375 374.999991" height="500" preserveAspectRatio="xMidYMid meet" version="1.0"><defs><clipPath id="4b69959538"><path d="M 52 167.597656 L 323.464844 167.597656 L 323.464844 207.207031 L 52 207.207031 Z M 52 167.597656 " clip-rule="nonzero"/></clipPath></defs><g clip-path="url(#4b69959538)"><path fill="#c4a948" d="M 174.5625 206.566406 C 172.914062 205.976562 171.195312 204.742188 171.195312 204.148438 C 171.195312 203.804688 171.460938 203.835938 172.496094 204.308594 C 175.421875 205.636719 179.113281 204.84375 181.859375 202.300781 C 184.3125 200.03125 184.761719 199.003906 184.589844 196.066406 C 184.414062 192.992188 183.25 190.777344 180.242188 187.789062 C 176.800781 184.371094 173.960938 182.660156 169.035156 181.050781 C 164.425781 179.546875 161.480469 179.109375 156.058594 179.128906 C 150.597656 179.148438 147.453125 179.53125 136.527344 181.503906 C 125.707031 183.457031 124.007812 183.644531 117.222656 183.625 C 112.207031 183.609375 110.5625 183.492188 108.085938 182.960938 C 103.003906 181.875 99.105469 179.636719 97.78125 177.046875 C 95.90625 173.371094 98.707031 167.890625 102.449219 167.914062 C 103.304688 167.976562 104.117188 168.203125 104.878906 168.601562 C 105.640625 168.996094 106.292969 169.527344 106.835938 170.191406 C 107.820312 171.484375 108.253906 174.292969 107.589844 175.089844 C 107.066406 175.730469 106.746094 175.4375 105.929688 173.59375 C 105.179688 171.898438 103.917969 170.660156 102.9375 170.660156 C 101.40625 170.660156 100.21875 172.265625 100.1875 174.378906 C 100.175781 175.394531 100.367188 175.808594 101.296875 176.757812 C 103.574219 179.089844 107.171875 180.242188 113.929688 180.804688 C 119.648438 181.277344 124.671875 180.871094 135.207031 179.078125 C 146.945312 177.082031 150.273438 176.695312 155.753906 176.683594 C 158.558594 176.585938 161.335938 176.808594 164.089844 177.347656 C 174.625 179.410156 182.746094 184.601562 186.117188 191.421875 C 187.1875 193.585938 187.25 193.886719 187.25 196.640625 C 187.25 199.253906 187.164062 199.707031 186.441406 200.941406 C 185.363281 202.769531 182.535156 205.414062 180.859375 206.15625 C 179.863281 206.582031 178.824219 206.828125 177.746094 206.902344 C 176.664062 206.972656 175.601562 206.859375 174.558594 206.566406 Z M 196.441406 206.546875 C 194.917969 206.015625 193.546875 205.214844 192.339844 204.144531 C 191.128906 203.074219 190.167969 201.8125 189.457031 200.363281 C 188.941406 199.125 188.738281 197.839844 188.847656 196.503906 C 188.886719 192.507812 190.257812 189.777344 194.175781 185.910156 C 199.183594 180.964844 207.269531 177.636719 216.324219 176.785156 C 221.980469 176.253906 226.285156 176.644531 239.851562 178.917969 C 250.375 180.679688 255.960938 181.21875 260.769531 180.929688 C 267.414062 180.535156 271.472656 179.5 274.027344 177.554688 C 276.308594 175.8125 276.664062 173.589844 274.980469 171.589844 C 273.539062 169.875 271.65625 170.6875 270.246094 173.644531 C 269.742188 174.695312 269.207031 175.554688 269.054688 175.554688 C 268.472656 175.554688 268.074219 174.21875 268.257812 172.886719 C 268.65625 169.960938 270.765625 168.0625 273.617188 168.0625 C 275.769531 168.0625 276.859375 168.785156 278.085938 171.019531 C 280.839844 176.046875 277.355469 180.707031 269.363281 182.679688 C 266.070312 183.492188 260.695312 183.902344 256.058594 183.699219 C 251.332031 183.488281 247.109375 182.90625 237.253906 181.101562 C 226.910156 179.207031 221.15625 178.699219 216 179.21875 C 209.980469 179.824219 203.898438 181.789062 199.894531 184.417969 C 197.109375 186.25 193.542969 189.964844 192.46875 192.164062 C 191.546875 194.050781 191.179688 196.9375 191.644531 198.648438 C 192.089844 200.28125 194.296875 202.742188 196.296875 203.828125 C 198.539062 205.050781 201.710938 205.277344 203.539062 204.34375 C 204.234375 203.988281 204.882812 203.820312 204.972656 203.972656 C 205.277344 204.460938 203.046875 206.105469 201.421875 206.585938 C 199.761719 207.179688 198.101562 207.167969 196.445312 206.550781 Z M 181.304688 198.0625 C 178.808594 192.910156 168.203125 186.558594 158.199219 184.234375 C 154.917969 183.46875 148.046875 183.460938 145.234375 184.214844 C 141.496094 185.214844 138.902344 187.101562 138.585938 189.046875 C 138.488281 189.386719 138.5 189.726562 138.613281 190.066406 C 138.726562 190.402344 138.925781 190.675781 139.214844 190.890625 C 140.710938 192.386719 144.859375 192.851562 146.054688 191.652344 C 146.480469 191.226562 146.488281 191.074219 146.101562 190.347656 C 145.773438 189.800781 145.34375 189.355469 144.8125 189.007812 C 144.070312 188.554688 144.023438 188.441406 144.429688 188.101562 C 145.714844 187.035156 148.480469 188.585938 149.007812 190.667969 C 150.195312 195.355469 141.558594 197.007812 137.320312 192.90625 C 136.929688 192.523438 136.609375 192.085938 136.363281 191.597656 C 136.117188 191.105469 135.960938 190.585938 135.890625 190.042969 C 135.824219 189.5 135.84375 188.957031 135.957031 188.421875 C 136.074219 187.882812 136.273438 187.378906 136.554688 186.910156 L 137.011719 186.183594 L 134.609375 186.390625 C 133.285156 186.503906 128.835938 187.09375 124.714844 187.703125 C 117.976562 188.691406 116.539062 188.808594 110.492188 188.832031 C 104.988281 188.855469 103.292969 188.757812 101.175781 188.292969 C 95.269531 186.992188 91.960938 185.507812 84.324219 180.71875 C 75.355469 175.101562 72.113281 173.902344 65.847656 173.886719 C 62.355469 173.878906 61.648438 173.96875 60.054688 174.609375 C 57.90625 175.46875 56.007812 177.148438 55.617188 178.53125 C 55.226562 179.929688 56.269531 181.789062 58.175781 183.105469 C 59.9375 184.320312 60.917969 184.609375 61.988281 184.230469 C 62.71875 183.976562 62.796875 183.785156 62.882812 182.046875 C 62.96875 180.25 63.015625 180.140625 63.726562 180.140625 C 64.785156 180.140625 65.695312 181.71875 65.695312 183.558594 C 65.699219 187.011719 61.859375 188.507812 58.019531 186.546875 C 56.089844 185.484375 54.542969 184.015625 53.382812 182.144531 C 51.355469 178.21875 54.222656 173.726562 59.953125 171.847656 C 61.863281 171.222656 62.734375 171.125 66.148438 171.152344 C 69.507812 171.179688 70.554688 171.308594 72.878906 172 C 76.457031 173.0625 80.269531 174.996094 86.488281 178.90625 C 89.261719 180.652344 92.632812 182.597656 93.980469 183.226562 C 97.503906 184.765625 101.175781 185.785156 104.988281 186.285156 C 107.988281 186.675781 116.683594 186.503906 120.890625 185.964844 C 125.644531 185.308594 130.421875 184.894531 135.21875 184.726562 C 138.148438 184.726562 138.28125 184.695312 140.027344 183.617188 C 142.578125 182.042969 145.273438 181.367188 149.789062 181.164062 C 156.414062 180.871094 161.808594 182.085938 168.953125 185.484375 C 173.5625 187.671875 176.980469 189.976562 179.484375 192.570312 C 182.390625 195.582031 183.527344 198.128906 182.390625 199.074219 C 182.046875 199.359375 181.839844 199.167969 181.304688 198.0625 Z M 193.472656 198.664062 C 192.296875 196.078125 198.605469 189.667969 205.90625 186.03125 C 211.859375 183.0625 217.644531 181.417969 223.046875 181.152344 C 228.921875 180.863281 233.097656 181.695312 236.433594 183.808594 C 237.789062 184.667969 238.078125 184.730469 240.855469 184.730469 C 245.6875 184.894531 250.503906 185.308594 255.292969 185.972656 C 259.273438 186.5625 268.667969 186.664062 271.960938 186.152344 C 278.613281 185.121094 281.953125 183.730469 290.132812 178.609375 C 298.796875 173.179688 303.222656 171.425781 309.121094 171.078125 C 313.8125 170.800781 318.230469 172.03125 320.878906 174.359375 C 322.261719 175.574219 323.488281 178.007812 323.484375 179.53125 C 323.472656 182.078125 321.09375 185.058594 317.835938 186.609375 C 314.035156 188.414062 310.71875 187.195312 310.433594 183.890625 C 310.257812 181.851562 311.070312 180.292969 312.3125 180.292969 L 313.214844 180.292969 L 313.132812 182.050781 C 313.058594 183.660156 313.113281 183.832031 313.8125 184.152344 C 314.976562 184.679688 316.570312 184.226562 318.273438 182.878906 C 321.023438 180.703125 321.394531 178.671875 319.394531 176.671875 C 316.015625 173.292969 308.617188 172.753906 301.625 175.382812 C 299.175781 176.304688 295.453125 178.359375 290.652344 181.441406 C 278.542969 189.214844 270.03125 190.488281 250.273438 187.5 C 244.496094 186.625 239.394531 186.085938 239.394531 186.347656 C 239.519531 186.769531 239.671875 187.183594 239.851562 187.582031 C 240.097656 188.105469 240.238281 188.652344 240.28125 189.226562 C 240.324219 189.800781 240.261719 190.363281 240.09375 190.917969 C 239.929688 191.46875 239.667969 191.972656 239.316406 192.429688 C 238.964844 192.882812 238.542969 193.261719 238.050781 193.5625 C 234.925781 195.699219 230.488281 195.839844 228.246094 193.871094 C 226.980469 192.761719 226.667969 191.578125 227.261719 190.15625 C 227.992188 188.410156 230.851562 187.070312 231.808594 188.027344 C 232.03125 188.25 231.792969 188.640625 231.019531 189.320312 C 229.59375 190.574219 229.539062 191.570312 230.875 192.035156 C 233.824219 193.0625 237.558594 191.550781 237.558594 189.328125 C 237.558594 188.074219 235.910156 186.285156 233.828125 185.28125 C 231.128906 183.976562 229.234375 183.664062 224.253906 183.6875 C 220.3125 183.710938 219.253906 183.824219 216.71875 184.515625 C 211.402344 185.9375 206.441406 188.148438 201.828125 191.144531 C 198.71875 193.226562 195.1875 196.792969 194.816406 198.230469 C 194.492188 199.484375 193.933594 199.664062 193.476562 198.660156 Z M 186.867188 186.792969 C 186.433594 182.367188 185.398438 179.097656 183.734375 176.894531 C 182.144531 174.789062 180.070312 173.414062 178.476562 173.414062 C 177.445312 173.414062 177.3125 173.5 177.3125 174.164062 C 177.460938 174.933594 177.769531 175.636719 178.230469 176.273438 C 179.300781 177.855469 179.351562 178.183594 178.578125 178.382812 C 177.410156 178.691406 176.195312 177.820312 175.339844 176.066406 C 174.417969 174.1875 174.546875 174.273438 170.785156 172.972656 C 169.296875 172.457031 168.125 171.898438 168.183594 171.730469 C 168.242188 171.5625 169.253906 171.425781 170.433594 171.425781 C 171.609375 171.34375 172.730469 171.554688 173.796875 172.0625 L 175.019531 172.699219 L 176.058594 171.988281 C 176.667969 171.582031 177.339844 171.34375 178.066406 171.277344 C 179.957031 171.40625 181.628906 172.082031 183.082031 173.300781 L 184.332031 174.371094 L 185.328125 172.289062 C 185.777344 171.414062 186.128906 170.5 186.386719 169.550781 C 186.464844 168.683594 187.398438 167.601562 188.0625 167.601562 C 188.6875 167.601562 189.851562 169 189.851562 169.75 C 190.0625 170.640625 190.378906 171.496094 190.800781 172.3125 L 191.746094 174.335938 L 192.675781 173.554688 C 194.054688 172.371094 195.644531 171.644531 197.441406 171.378906 C 197.878906 171.277344 198.320312 171.277344 198.757812 171.378906 C 199.199219 171.480469 199.59375 171.671875 199.945312 171.953125 L 201.015625 172.6875 L 202.601562 171.96875 C 203.6875 171.429688 204.835938 171.21875 206.042969 171.335938 C 207.0625 171.386719 207.929688 171.566406 207.972656 171.734375 C 208.011719 171.902344 206.804688 172.457031 205.296875 172.96875 C 201.726562 174.175781 201.28125 174.441406 201.070312 175.496094 C 200.804688 176.828125 199.269531 178.308594 198.15625 178.308594 C 197.773438 178.347656 197.414062 178.269531 197.082031 178.074219 C 197.003906 177.949219 197.425781 177.054688 198.019531 176.101562 C 199.253906 174.113281 199.191406 173.417969 197.78125 173.417969 C 196.292969 173.417969 194.894531 174.246094 193.089844 176.191406 C 190.691406 178.785156 189.238281 183.210938 189.238281 187.953125 C 189.238281 189.824219 188.820312 190.734375 188.328125 189.9375 C 188.160156 189.667969 188.03125 189.65625 187.882812 189.898438 C 187.394531 190.6875 187.183594 190.042969 186.863281 186.792969 Z M 186.867188 186.792969 " fill-opacity="1" fill-rule="nonzero"/></g></svg>