<svg xmlns="http://www.w3.org/2000/svg" xmlns:xlink="http://www.w3.org/1999/xlink" width="500" zoomAndPan="magnify" viewBox="0 0 375 374.999991" height="500" preserveAspectRatio="xMidYMid meet" version="1.0"><defs><clipPath id="49193ff0d4"><path d="M 16.226562 7.746094 L 358.976562 7.746094 L 358.976562 350.496094 L 16.226562 350.496094 Z M 16.226562 7.746094 " clip-rule="nonzero"/></clipPath></defs><g clip-path="url(#49193ff0d4)"><path fill="#efae4b" d="M 233.667969 14.050781 L 228.714844 131.636719 C 228.390625 139.316406 231.097656 146.949219 236.644531 152.273438 C 237.054688 152.667969 237.488281 153.0625 237.945312 153.445312 C 248.066406 162.035156 250.3125 181.875 249.78125 185.363281 C 249.308594 188.492188 247.132812 244.613281 246.691406 256.125 C 246.648438 257.273438 245.703125 258.179688 244.550781 258.179688 L 244.46875 258.179688 C 243.308594 258.179688 242.363281 257.257812 242.332031 256.097656 L 240.539062 190.40625 C 240.507812 189.246094 239.558594 188.324219 238.398438 188.324219 L 236.519531 188.324219 C 235.367188 188.324219 234.425781 189.234375 234.382812 190.382812 L 231.894531 256.121094 C 231.851562 257.269531 230.90625 258.179688 229.757812 258.179688 C 228.605469 258.179688 227.660156 257.269531 227.617188 256.121094 L 225.132812 190.382812 C 225.089844 189.234375 224.144531 188.324219 222.992188 188.324219 L 220.988281 188.324219 C 219.835938 188.324219 218.890625 189.234375 218.847656 190.382812 L 216.363281 256.121094 C 216.320312 257.269531 215.375 258.179688 214.222656 258.179688 C 213.074219 258.179688 212.128906 257.269531 212.085938 256.121094 L 209.601562 190.382812 C 209.558594 189.234375 208.613281 188.324219 207.460938 188.324219 L 205.582031 188.324219 C 204.421875 188.324219 203.472656 189.246094 203.441406 190.40625 L 201.652344 256.097656 C 201.617188 257.257812 200.667969 258.179688 199.511719 258.179688 L 199.429688 258.179688 C 198.277344 258.179688 197.332031 257.277344 197.289062 256.125 C 196.847656 244.613281 194.671875 188.492188 194.199219 185.363281 C 193.667969 181.875 195.917969 162.039062 206.035156 153.445312 C 206.488281 153.0625 206.921875 152.667969 207.335938 152.273438 C 212.882812 146.949219 215.589844 139.316406 215.265625 131.636719 L 210.109375 9.234375 C 202.707031 8.257812 195.164062 7.746094 187.5 7.746094 C 92.910156 7.746094 16.226562 84.425781 16.226562 179.015625 C 16.226562 273.605469 92.910156 350.285156 187.496094 350.285156 C 220.972656 350.285156 252.195312 340.671875 278.578125 324.074219 L 288.046875 222.121094 C 284.421875 215.390625 272.699219 203.992188 272.699219 149.761719 C 272.699219 101.003906 281.132812 87.015625 286.667969 80.417969 C 288.265625 78.515625 290.652344 77.457031 293.136719 77.457031 C 297.859375 77.457031 301.683594 81.285156 301.683594 86.003906 L 301.683594 306.65625 C 336.714844 275.292969 358.765625 229.730469 358.765625 179.015625 C 358.765625 100.421875 305.828125 34.203125 233.667969 14.046875 Z M 233.667969 14.050781 " fill-opacity="1" fill-rule="nonzero"/></g></svg>